<mxfile host="Electron" modified="2024-06-14T07:00:49.130Z" agent="Mozilla/5.0 (Windows NT 10.0; Win64; x64) AppleWebKit/537.36 (KHTML, like Gecko) draw.io/24.5.3 Chrome/124.0.6367.207 Electron/30.0.6 Safari/537.36" etag="rJ5B5TkZnFeZLlyCEYzA" version="24.5.3" type="device">
  <diagram name="Page-1" id="2YBvvXClWsGukQMizWep">
    <mxGraphModel dx="2607" dy="1740" grid="1" gridSize="10" guides="1" tooltips="1" connect="1" arrows="1" fold="1" page="1" pageScale="1" pageWidth="1169" pageHeight="827" math="0" shadow="0">
      <root>
        <mxCell id="0" />
        <mxCell id="1" parent="0" />
        <mxCell id="40Eewz4d37DVKOO8whst-1" value="&amp;lt;&amp;lt;boundary&amp;gt;&amp;gt;&lt;div&gt;:Main Menu&lt;/div&gt;" style="shape=umlLifeline;perimeter=lifelinePerimeter;whiteSpace=wrap;html=1;container=1;dropTarget=0;collapsible=0;recursiveResize=0;outlineConnect=0;portConstraint=eastwest;newEdgeStyle={&quot;edgeStyle&quot;:&quot;elbowEdgeStyle&quot;,&quot;elbow&quot;:&quot;vertical&quot;,&quot;curved&quot;:0,&quot;rounded&quot;:0};" parent="1" vertex="1">
          <mxGeometry x="200" y="79" width="120" height="951" as="geometry" />
        </mxCell>
        <mxCell id="UgQZSp92NmhMC5YI5ZQL-13" value="" style="html=1;points=[[0,0,0,0,5],[0,1,0,0,-5],[1,0,0,0,5],[1,1,0,0,-5]];perimeter=orthogonalPerimeter;outlineConnect=0;targetShapes=umlLifeline;portConstraint=eastwest;newEdgeStyle={&quot;curved&quot;:0,&quot;rounded&quot;:0};fontFamily=Helvetica;fontSize=11;fontColor=default;labelBackgroundColor=default;" vertex="1" parent="40Eewz4d37DVKOO8whst-1">
          <mxGeometry x="55" y="120" width="10" height="750" as="geometry" />
        </mxCell>
        <mxCell id="UgQZSp92NmhMC5YI5ZQL-55" value="" style="shape=umlDestroy;whiteSpace=wrap;html=1;strokeWidth=3;targetShapes=umlLifeline;fontFamily=Helvetica;fontSize=11;fontColor=default;labelBackgroundColor=default;" vertex="1" parent="40Eewz4d37DVKOO8whst-1">
          <mxGeometry x="45" y="921" width="30" height="30" as="geometry" />
        </mxCell>
        <mxCell id="UgQZSp92NmhMC5YI5ZQL-2" value="&amp;lt;&amp;lt;boundary&amp;gt;&amp;gt;&lt;div&gt;:Profile Selection Screen&lt;/div&gt;" style="shape=umlLifeline;perimeter=lifelinePerimeter;whiteSpace=wrap;html=1;container=1;dropTarget=0;collapsible=0;recursiveResize=0;outlineConnect=0;portConstraint=eastwest;newEdgeStyle={&quot;edgeStyle&quot;:&quot;elbowEdgeStyle&quot;,&quot;elbow&quot;:&quot;vertical&quot;,&quot;curved&quot;:0,&quot;rounded&quot;:0};" vertex="1" parent="1">
          <mxGeometry x="360" y="79" width="120" height="941" as="geometry" />
        </mxCell>
        <mxCell id="UgQZSp92NmhMC5YI5ZQL-14" value="" style="html=1;points=[[0,0,0,0,5],[0,1,0,0,-5],[1,0,0,0,5],[1,1,0,0,-5]];perimeter=orthogonalPerimeter;outlineConnect=0;targetShapes=umlLifeline;portConstraint=eastwest;newEdgeStyle={&quot;curved&quot;:0,&quot;rounded&quot;:0};fontFamily=Helvetica;fontSize=11;fontColor=default;labelBackgroundColor=default;" vertex="1" parent="UgQZSp92NmhMC5YI5ZQL-2">
          <mxGeometry x="55" y="140" width="10" height="690" as="geometry" />
        </mxCell>
        <mxCell id="UgQZSp92NmhMC5YI5ZQL-3" value="&amp;lt;&amp;lt;boundary&amp;gt;&amp;gt;&lt;div&gt;:Profile Creation Overlay&lt;/div&gt;" style="shape=umlLifeline;perimeter=lifelinePerimeter;whiteSpace=wrap;html=1;container=1;dropTarget=0;collapsible=0;recursiveResize=0;outlineConnect=0;portConstraint=eastwest;newEdgeStyle={&quot;edgeStyle&quot;:&quot;elbowEdgeStyle&quot;,&quot;elbow&quot;:&quot;vertical&quot;,&quot;curved&quot;:0,&quot;rounded&quot;:0};" vertex="1" parent="1">
          <mxGeometry x="520" y="79" width="120" height="881" as="geometry" />
        </mxCell>
        <mxCell id="UgQZSp92NmhMC5YI5ZQL-18" value="" style="html=1;points=[[0,0,0,0,5],[0,1,0,0,-5],[1,0,0,0,5],[1,1,0,0,-5]];perimeter=orthogonalPerimeter;outlineConnect=0;targetShapes=umlLifeline;portConstraint=eastwest;newEdgeStyle={&quot;curved&quot;:0,&quot;rounded&quot;:0};fontFamily=Helvetica;fontSize=11;fontColor=default;labelBackgroundColor=default;" vertex="1" parent="UgQZSp92NmhMC5YI5ZQL-3">
          <mxGeometry x="55" y="220" width="10" height="550" as="geometry" />
        </mxCell>
        <mxCell id="UgQZSp92NmhMC5YI5ZQL-59" value="showProfileCreationOverlay()" style="html=1;align=left;spacingLeft=2;endArrow=block;rounded=0;edgeStyle=orthogonalEdgeStyle;curved=0;rounded=0;dashed=1;strokeColor=default;verticalAlign=bottom;fontFamily=Helvetica;fontSize=11;fontColor=default;labelBackgroundColor=default;sourcePerimeterSpacing=0;" edge="1" target="UgQZSp92NmhMC5YI5ZQL-18" parent="UgQZSp92NmhMC5YI5ZQL-3" source="UgQZSp92NmhMC5YI5ZQL-18">
          <mxGeometry x="0.3331" relative="1" as="geometry">
            <mxPoint x="65" y="691" as="sourcePoint" />
            <Array as="points">
              <mxPoint x="85" y="661" />
              <mxPoint x="85" y="681" />
            </Array>
            <mxPoint x="70" y="721.037037037037" as="targetPoint" />
            <mxPoint as="offset" />
          </mxGeometry>
        </mxCell>
        <mxCell id="UgQZSp92NmhMC5YI5ZQL-5" style="rounded=1;orthogonalLoop=1;jettySize=auto;html=1;sourcePerimeterSpacing=20;dashed=1;curved=0;endArrow=none;endFill=0;" edge="1" parent="1" source="UgQZSp92NmhMC5YI5ZQL-4">
          <mxGeometry width="125" height="990" relative="1" as="geometry">
            <mxPoint x="120" y="800" as="targetPoint" />
          </mxGeometry>
        </mxCell>
        <mxCell id="UgQZSp92NmhMC5YI5ZQL-8" value="" style="html=1;points=[[0,0,0,0,5],[0,1,0,0,-5],[1,0,0,0,5],[1,1,0,0,-5]];perimeter=orthogonalPerimeter;outlineConnect=0;targetShapes=umlLifeline;portConstraint=eastwest;newEdgeStyle={&quot;curved&quot;:0,&quot;rounded&quot;:0};fontFamily=Helvetica;fontSize=11;fontColor=default;labelBackgroundColor=default;" vertex="1" parent="UgQZSp92NmhMC5YI5ZQL-5">
          <mxGeometry x="115" y="160" width="10" height="820" as="geometry" />
        </mxCell>
        <mxCell id="UgQZSp92NmhMC5YI5ZQL-4" value=":Unregistered&lt;span style=&quot;background-color: initial;&quot;&gt;User&lt;/span&gt;" style="shape=umlActor;verticalLabelPosition=bottom;verticalAlign=top;html=1;" vertex="1" parent="1">
          <mxGeometry x="110" y="60" width="20" height="40" as="geometry" />
        </mxCell>
        <mxCell id="UgQZSp92NmhMC5YI5ZQL-9" value="&amp;lt;&amp;lt;boundary&amp;gt;&amp;gt;&lt;div&gt;:Confirmation Overlay&lt;/div&gt;" style="shape=umlLifeline;perimeter=lifelinePerimeter;whiteSpace=wrap;html=1;container=1;dropTarget=0;collapsible=0;recursiveResize=0;outlineConnect=0;portConstraint=eastwest;newEdgeStyle={&quot;edgeStyle&quot;:&quot;elbowEdgeStyle&quot;,&quot;elbow&quot;:&quot;vertical&quot;,&quot;curved&quot;:0,&quot;rounded&quot;:0};" vertex="1" parent="1">
          <mxGeometry x="680" y="79" width="120" height="911" as="geometry" />
        </mxCell>
        <mxCell id="UgQZSp92NmhMC5YI5ZQL-27" value="" style="html=1;points=[[0,0,0,0,5],[0,1,0,0,-5],[1,0,0,0,5],[1,1,0,0,-5]];perimeter=orthogonalPerimeter;outlineConnect=0;targetShapes=umlLifeline;portConstraint=eastwest;newEdgeStyle={&quot;curved&quot;:0,&quot;rounded&quot;:0};fontFamily=Helvetica;fontSize=11;fontColor=default;labelBackgroundColor=default;" vertex="1" parent="UgQZSp92NmhMC5YI5ZQL-9">
          <mxGeometry x="55" y="390.5" width="10" height="169.5" as="geometry" />
        </mxCell>
        <mxCell id="UgQZSp92NmhMC5YI5ZQL-10" value="&amp;lt;&amp;lt;control&amp;gt;&amp;gt;&lt;div&gt;:Profile Creation Controller&lt;/div&gt;" style="shape=umlLifeline;perimeter=lifelinePerimeter;whiteSpace=wrap;html=1;container=1;dropTarget=0;collapsible=0;recursiveResize=0;outlineConnect=0;portConstraint=eastwest;newEdgeStyle={&quot;edgeStyle&quot;:&quot;elbowEdgeStyle&quot;,&quot;elbow&quot;:&quot;vertical&quot;,&quot;curved&quot;:0,&quot;rounded&quot;:0};" vertex="1" parent="1">
          <mxGeometry x="840" y="79" width="120" height="951" as="geometry" />
        </mxCell>
        <mxCell id="UgQZSp92NmhMC5YI5ZQL-22" value="" style="html=1;points=[[0,0,0,0,5],[0,1,0,0,-5],[1,0,0,0,5],[1,1,0,0,-5]];perimeter=orthogonalPerimeter;outlineConnect=0;targetShapes=umlLifeline;portConstraint=eastwest;newEdgeStyle={&quot;curved&quot;:0,&quot;rounded&quot;:0};fontFamily=Helvetica;fontSize=11;fontColor=default;labelBackgroundColor=default;" vertex="1" parent="UgQZSp92NmhMC5YI5ZQL-10">
          <mxGeometry x="55" y="281" width="10" height="39" as="geometry" />
        </mxCell>
        <mxCell id="UgQZSp92NmhMC5YI5ZQL-29" value="" style="html=1;points=[[0,0,0,0,5],[0,1,0,0,-5],[1,0,0,0,5],[1,1,0,0,-5]];perimeter=orthogonalPerimeter;outlineConnect=0;targetShapes=umlLifeline;portConstraint=eastwest;newEdgeStyle={&quot;curved&quot;:0,&quot;rounded&quot;:0};fontFamily=Helvetica;fontSize=11;fontColor=default;labelBackgroundColor=default;" vertex="1" parent="UgQZSp92NmhMC5YI5ZQL-10">
          <mxGeometry x="55" y="441" width="10" height="99" as="geometry" />
        </mxCell>
        <mxCell id="UgQZSp92NmhMC5YI5ZQL-11" value="&amp;lt;&amp;lt;entity&amp;gt;&amp;gt;&lt;div&gt;:User&lt;/div&gt;" style="shape=umlLifeline;perimeter=lifelinePerimeter;whiteSpace=wrap;html=1;container=1;dropTarget=0;collapsible=0;recursiveResize=0;outlineConnect=0;portConstraint=eastwest;newEdgeStyle={&quot;edgeStyle&quot;:&quot;elbowEdgeStyle&quot;,&quot;elbow&quot;:&quot;vertical&quot;,&quot;curved&quot;:0,&quot;rounded&quot;:0};" vertex="1" parent="1">
          <mxGeometry x="1160" y="520" width="120" height="520" as="geometry" />
        </mxCell>
        <mxCell id="UgQZSp92NmhMC5YI5ZQL-12" value="pressPlay()" style="html=1;verticalAlign=bottom;endArrow=block;curved=0;rounded=0;strokeColor=default;align=center;fontFamily=Helvetica;fontSize=11;fontColor=default;labelBackgroundColor=default;sourcePerimeterSpacing=0;" edge="1" parent="1" source="UgQZSp92NmhMC5YI5ZQL-8" target="UgQZSp92NmhMC5YI5ZQL-13">
          <mxGeometry width="80" relative="1" as="geometry">
            <mxPoint x="130" y="200" as="sourcePoint" />
            <mxPoint x="200" y="200" as="targetPoint" />
            <Array as="points">
              <mxPoint x="200" y="200" />
            </Array>
          </mxGeometry>
        </mxCell>
        <mxCell id="UgQZSp92NmhMC5YI5ZQL-15" value="showProfileSelectionScreen()" style="html=1;verticalAlign=bottom;endArrow=block;curved=0;rounded=0;strokeColor=default;align=center;fontFamily=Helvetica;fontSize=11;fontColor=default;labelBackgroundColor=default;sourcePerimeterSpacing=0;" edge="1" parent="1" source="UgQZSp92NmhMC5YI5ZQL-13" target="UgQZSp92NmhMC5YI5ZQL-14">
          <mxGeometry width="80" relative="1" as="geometry">
            <mxPoint x="270" y="220" as="sourcePoint" />
            <mxPoint x="350" y="220" as="targetPoint" />
            <Array as="points">
              <mxPoint x="340" y="220" />
            </Array>
          </mxGeometry>
        </mxCell>
        <mxCell id="UgQZSp92NmhMC5YI5ZQL-17" value="pressCreateProfile()" style="html=1;verticalAlign=bottom;endArrow=block;curved=0;rounded=0;strokeColor=default;align=center;fontFamily=Helvetica;fontSize=11;fontColor=default;labelBackgroundColor=default;sourcePerimeterSpacing=0;" edge="1" parent="1" source="UgQZSp92NmhMC5YI5ZQL-8" target="UgQZSp92NmhMC5YI5ZQL-14">
          <mxGeometry x="-0.069" width="80" relative="1" as="geometry">
            <mxPoint x="130" y="280" as="sourcePoint" />
            <mxPoint x="260" y="280" as="targetPoint" />
            <Array as="points">
              <mxPoint x="260" y="280" />
            </Array>
            <mxPoint as="offset" />
          </mxGeometry>
        </mxCell>
        <mxCell id="UgQZSp92NmhMC5YI5ZQL-20" value="showProfileCreationOverlay()" style="html=1;verticalAlign=bottom;endArrow=block;curved=0;rounded=0;strokeColor=default;align=center;fontFamily=Helvetica;fontSize=11;fontColor=default;labelBackgroundColor=default;sourcePerimeterSpacing=0;" edge="1" parent="1" source="UgQZSp92NmhMC5YI5ZQL-14" target="UgQZSp92NmhMC5YI5ZQL-18">
          <mxGeometry width="80" relative="1" as="geometry">
            <mxPoint x="430" y="240" as="sourcePoint" />
            <mxPoint x="580" y="240" as="targetPoint" />
            <Array as="points">
              <mxPoint x="500" y="300" />
            </Array>
          </mxGeometry>
        </mxCell>
        <mxCell id="UgQZSp92NmhMC5YI5ZQL-21" value="setUser(name=&quot;John&quot;, imagid=5)" style="html=1;verticalAlign=bottom;endArrow=block;curved=0;rounded=0;strokeColor=default;align=center;fontFamily=Helvetica;fontSize=11;fontColor=default;labelBackgroundColor=default;sourcePerimeterSpacing=0;" edge="1" parent="1" source="UgQZSp92NmhMC5YI5ZQL-8" target="UgQZSp92NmhMC5YI5ZQL-18">
          <mxGeometry x="-0.069" width="80" relative="1" as="geometry">
            <mxPoint x="130" y="360" as="sourcePoint" />
            <mxPoint x="420" y="360" as="targetPoint" />
            <Array as="points">
              <mxPoint x="265" y="360" />
            </Array>
            <mxPoint as="offset" />
          </mxGeometry>
        </mxCell>
        <mxCell id="UgQZSp92NmhMC5YI5ZQL-23" value="verifyInput(name=&quot;John&quot;)" style="html=1;verticalAlign=bottom;endArrow=block;curved=0;rounded=0;strokeColor=default;align=center;fontFamily=Helvetica;fontSize=11;fontColor=default;labelBackgroundColor=default;sourcePerimeterSpacing=0;" edge="1" parent="1" source="UgQZSp92NmhMC5YI5ZQL-18" target="UgQZSp92NmhMC5YI5ZQL-22">
          <mxGeometry width="80" relative="1" as="geometry">
            <mxPoint x="585" y="360" as="sourcePoint" />
            <mxPoint x="735" y="360" as="targetPoint" />
            <Array as="points">
              <mxPoint x="660" y="360" />
            </Array>
          </mxGeometry>
        </mxCell>
        <mxCell id="UgQZSp92NmhMC5YI5ZQL-24" value="result = verifyInput(name=&quot;John&quot;) : true" style="html=1;verticalAlign=bottom;endArrow=open;dashed=1;endSize=8;curved=0;rounded=0;strokeColor=default;align=center;fontFamily=Helvetica;fontSize=11;fontColor=default;labelBackgroundColor=default;sourcePerimeterSpacing=0;" edge="1" parent="1" source="UgQZSp92NmhMC5YI5ZQL-22" target="UgQZSp92NmhMC5YI5ZQL-18">
          <mxGeometry relative="1" as="geometry">
            <mxPoint x="720" y="390" as="sourcePoint" />
            <mxPoint x="590" y="391" as="targetPoint" />
            <Array as="points">
              <mxPoint x="740" y="400" />
            </Array>
          </mxGeometry>
        </mxCell>
        <mxCell id="UgQZSp92NmhMC5YI5ZQL-26" value="showConfirmationOverlay()" style="html=1;verticalAlign=bottom;endArrow=block;curved=0;rounded=0;strokeColor=default;align=center;fontFamily=Helvetica;fontSize=11;fontColor=default;labelBackgroundColor=default;sourcePerimeterSpacing=0;" edge="1" parent="1" source="UgQZSp92NmhMC5YI5ZQL-18" target="UgQZSp92NmhMC5YI5ZQL-27">
          <mxGeometry width="80" relative="1" as="geometry">
            <mxPoint x="585" y="440" as="sourcePoint" />
            <mxPoint x="710" y="440" as="targetPoint" />
            <Array as="points">
              <mxPoint x="660" y="470" />
            </Array>
          </mxGeometry>
        </mxCell>
        <mxCell id="UgQZSp92NmhMC5YI5ZQL-28" value="pressConfirm()" style="html=1;verticalAlign=bottom;endArrow=block;curved=0;rounded=0;strokeColor=default;align=center;fontFamily=Helvetica;fontSize=11;fontColor=default;labelBackgroundColor=default;sourcePerimeterSpacing=0;" edge="1" parent="1" source="UgQZSp92NmhMC5YI5ZQL-8" target="UgQZSp92NmhMC5YI5ZQL-27">
          <mxGeometry x="-0.069" width="80" relative="1" as="geometry">
            <mxPoint x="135" y="370" as="sourcePoint" />
            <mxPoint x="585" y="370" as="targetPoint" />
            <Array as="points">
              <mxPoint x="420" y="500" />
            </Array>
            <mxPoint as="offset" />
          </mxGeometry>
        </mxCell>
        <mxCell id="UgQZSp92NmhMC5YI5ZQL-31" value="&amp;lt;&amp;lt;create&amp;gt;&amp;gt;&lt;div&gt;User(name=&quot;John&quot;, imageId=5)&lt;/div&gt;" style="html=1;verticalAlign=bottom;endArrow=open;curved=0;rounded=0;strokeColor=default;align=center;fontFamily=Helvetica;fontSize=11;fontColor=default;labelBackgroundColor=default;sourcePerimeterSpacing=0;dashed=1;endFill=0;" edge="1" parent="1" source="UgQZSp92NmhMC5YI5ZQL-29">
          <mxGeometry width="80" relative="1" as="geometry">
            <mxPoint x="900" y="520" as="sourcePoint" />
            <mxPoint x="1160" y="540" as="targetPoint" />
            <Array as="points">
              <mxPoint x="1060" y="540" />
            </Array>
          </mxGeometry>
        </mxCell>
        <mxCell id="UgQZSp92NmhMC5YI5ZQL-40" value="&amp;lt;&amp;lt;interface&amp;gt;&amp;gt;&lt;div&gt;:User DAO&lt;/div&gt;" style="shape=umlLifeline;perimeter=lifelinePerimeter;whiteSpace=wrap;html=1;container=1;dropTarget=0;collapsible=0;recursiveResize=0;outlineConnect=0;portConstraint=eastwest;newEdgeStyle={&quot;edgeStyle&quot;:&quot;elbowEdgeStyle&quot;,&quot;elbow&quot;:&quot;vertical&quot;,&quot;curved&quot;:0,&quot;rounded&quot;:0};" vertex="1" parent="1">
          <mxGeometry x="1000" y="79" width="120" height="901" as="geometry" />
        </mxCell>
        <mxCell id="UgQZSp92NmhMC5YI5ZQL-44" value="" style="html=1;points=[[0,0,0,0,5],[0,1,0,0,-5],[1,0,0,0,5],[1,1,0,0,-5]];perimeter=orthogonalPerimeter;outlineConnect=0;targetShapes=umlLifeline;portConstraint=eastwest;newEdgeStyle={&quot;curved&quot;:0,&quot;rounded&quot;:0};fontFamily=Helvetica;fontSize=11;fontColor=default;labelBackgroundColor=default;" vertex="1" parent="UgQZSp92NmhMC5YI5ZQL-40">
          <mxGeometry x="55" y="481" width="10" height="19" as="geometry" />
        </mxCell>
        <mxCell id="UgQZSp92NmhMC5YI5ZQL-30" value="registerUser(name=&quot;John&quot;, imageId=5)" style="html=1;verticalAlign=bottom;endArrow=block;curved=0;rounded=0;strokeColor=default;align=center;fontFamily=Helvetica;fontSize=11;fontColor=default;labelBackgroundColor=default;sourcePerimeterSpacing=0;" edge="1" parent="1" source="UgQZSp92NmhMC5YI5ZQL-27" target="UgQZSp92NmhMC5YI5ZQL-29">
          <mxGeometry width="80" relative="1" as="geometry">
            <mxPoint x="750" y="500" as="sourcePoint" />
            <mxPoint x="900" y="500" as="targetPoint" />
            <Array as="points">
              <mxPoint x="820" y="520" />
            </Array>
          </mxGeometry>
        </mxCell>
        <mxCell id="UgQZSp92NmhMC5YI5ZQL-49" value="alt" style="shape=umlFrame;whiteSpace=wrap;html=1;pointerEvents=0;recursiveResize=0;container=1;collapsible=0;width=50;fontFamily=Helvetica;fontSize=11;fontColor=default;labelBackgroundColor=default;height=26;" vertex="1" parent="1">
          <mxGeometry x="480" y="440" width="900" height="526" as="geometry" />
        </mxCell>
        <mxCell id="UgQZSp92NmhMC5YI5ZQL-50" value="[result = true]" style="text;html=1;fontFamily=Helvetica;fontSize=11;fontColor=default;labelBackgroundColor=default;" vertex="1" parent="UgQZSp92NmhMC5YI5ZQL-49">
          <mxGeometry width="100" height="20" relative="1" as="geometry">
            <mxPoint x="20" y="30" as="offset" />
          </mxGeometry>
        </mxCell>
        <mxCell id="UgQZSp92NmhMC5YI5ZQL-51" value="[result = false]" style="line;strokeWidth=1;dashed=1;labelPosition=center;verticalLabelPosition=bottom;align=left;verticalAlign=top;spacingLeft=20;spacingTop=15;html=1;whiteSpace=wrap;fontFamily=Helvetica;fontSize=11;fontColor=default;labelBackgroundColor=default;" vertex="1" parent="UgQZSp92NmhMC5YI5ZQL-49">
          <mxGeometry y="286" width="900" height="10" as="geometry" />
        </mxCell>
        <mxCell id="UgQZSp92NmhMC5YI5ZQL-43" value="insert(newUser)" style="html=1;verticalAlign=bottom;endArrow=block;curved=0;rounded=0;strokeColor=default;align=center;fontFamily=Helvetica;fontSize=11;fontColor=default;labelBackgroundColor=default;sourcePerimeterSpacing=0;" edge="1" parent="1" source="UgQZSp92NmhMC5YI5ZQL-29" target="UgQZSp92NmhMC5YI5ZQL-44">
          <mxGeometry width="80" relative="1" as="geometry">
            <mxPoint x="980" y="796" as="sourcePoint" />
            <mxPoint x="1130" y="796" as="targetPoint" />
            <Array as="points">
              <mxPoint x="980" y="560" />
            </Array>
          </mxGeometry>
        </mxCell>
      </root>
    </mxGraphModel>
  </diagram>
</mxfile>
